<?xml version="1.0" standalone="no"?>
<!DOCTYPE svg PUBLIC "-//W3C//DTD SVG 20010904//EN"
 "http://www.w3.org/TR/2001/REC-SVG-20010904/DTD/svg10.dtd">
<svg version="1.0" xmlns="http://www.w3.org/2000/svg"
 width="120.000000pt" height="120.000000pt" viewBox="0 0 120.000000 120.000000"
 preserveAspectRatio="xMidYMid meet">
<metadata>
Created by potrace 1.14, written by Peter Selinger 2001-2017
</metadata>
<g transform="translate(0.000000,120.000000) scale(0.100000,-0.100000)"
fill="#000000" stroke="none">
<path d="M340 962 c0 -6 5 -14 10 -17 21 -13 8 -32 -28 -43 -52 -16 -151 -81
-185 -122 -79 -94 -94 -193 -42 -289 38 -68 90 -113 190 -161 347 -169 840 -4
840 280 -1 136 -133 262 -331 315 -32 9 -124 20 -204 26 -80 5 -169 12 -197
15 -35 4 -53 3 -53 -4z m129 -15 c74 -12 75 -13 119 -67 24 -30 50 -63 58 -73
8 -9 14 -22 14 -27 0 -13 -3 -13 122 7 l106 17 79 -54 c43 -29 80 -55 83 -57
2 -2 -2 -8 -10 -13 -24 -15 -83 -12 -109 6 -15 11 -34 15 -59 11 -28 -5 -46 0
-77 18 -57 35 -72 33 -67 -9 3 -27 -1 -37 -24 -55 -69 -55 -148 26 -97 98 16
23 15 25 -5 42 -12 9 -39 20 -60 24 -26 4 -43 15 -57 35 -11 16 -32 32 -46 35
-14 3 -41 21 -59 40 -33 35 -34 35 -9 34 13 0 57 -6 98 -12z m317 -42 c95 -25
180 -70 234 -124 62 -62 80 -102 80 -176 0 -121 -94 -223 -258 -280 -273 -95
-617 -15 -722 169 -58 99 -35 214 58 297 57 51 212 125 212 102 0 -5 -24 -17
-52 -27 -68 -23 -151 -78 -182 -119 -100 -131 -61 -271 103 -366 175 -102 456
-109 645 -17 202 99 246 286 99 416 -82 72 -242 130 -360 130 -36 0 -65 5 -69
12 -9 15 130 4 212 -17z m-319 -156 c46 -17 81 -58 93 -109 20 -82 -10 -149
-82 -186 -39 -20 -238 -33 -238 -15 0 6 9 11 20 11 19 0 20 7 20 145 0 142 -1
146 -22 155 -34 13 174 13 209 -1z m256 -180 c6 -51 12 -67 22 -58 8 9 9 63 1
87 -5 16 -3 22 7 22 10 0 17 -17 22 -55 7 -59 24 -84 26 -38 1 15 3 20 6 11 2
-9 -1 -36 -8 -60 l-12 -43 -12 45 c-12 45 -15 44 -33 -15 -8 -28 -10 -24 -29
55 -10 47 -18 88 -16 93 11 19 21 2 26 -44z m101 24 c-10 -40 -14 -41 -14 -5
0 18 5 32 10 32 6 0 8 -11 4 -27z m106 -63 c0 -53 -4 -90 -10 -90 -6 0 -10 37
-10 90 0 53 4 90 10 90 6 0 10 -37 10 -90z m40 5 c0 -47 0 -87 0 -90 0 -3 -3
-5 -6 -5 -3 0 -6 40 -7 90 -1 50 1 90 6 90 4 0 7 -38 7 -85z m-82 -3 c3 -18
-1 -22 -22 -22 -14 0 -26 -6 -26 -12 0 -23 18 -41 34 -35 21 8 21 -7 0 -24
-14 -11 -18 -10 -30 6 -17 23 -18 87 -2 103 18 18 43 10 46 -16z"/>
<path d="M362 603 l3 -138 34 0 c44 0 69 33 77 100 12 96 -28 175 -88 175
l-29 0 3 -137z"/>
<path d="M850 535 c0 -8 5 -15 10 -15 6 0 10 7 10 15 0 8 -4 15 -10 15 -5 0
-10 -7 -10 -15z"/>
</g>
</svg>
